<?xml version="1.0" encoding="UTF-8" standalone="no"?><!DOCTYPE svg PUBLIC "-//W3C//DTD SVG 1.1//EN" "http://www.w3.org/Graphics/SVG/1.1/DTD/svg11.dtd"><svg width="100%" height="100%" viewBox="0 0 929 784" version="1.1" xmlns="http://www.w3.org/2000/svg" xmlns:xlink="http://www.w3.org/1999/xlink" xml:space="preserve" style="fill-rule:evenodd;clip-rule:evenodd;stroke-linecap:round;stroke-linejoin:round;stroke-miterlimit:1.5;"><g><circle cx="403.457" cy="391.562" r="386.278" style="fill:#fff;stroke:#000;stroke-width:10.37px;"/><g><path d="M6.586,542.832c89.372,136.609 259.993,202.892 424.926,167.024c109.729,-23.863 246.113,-104.131 285.857,-206.7c58.018,-149.725 155.085,-442.289 -139.518,-439.493c-88.673,0.842 -202.342,3.242 -331.801,19.662c-122.967,23.131 -127.927,87.113 -140.353,324.877c-3.697,113.764 -41.177,148.21 -99.111,134.63Z" style="fill:#6e7f40;stroke:#000;stroke-width:13px;"/><path d="M653.414,174.088c42.112,7.887 65.357,22.752 68.989,44.87" style="fill:none;stroke:#000;stroke-width:7.28px;"/><g><path d="M395.813,597.901c-11.355,7.544 -14.197,15.798 -3.228,29.816c57.019,23.244 81.78,24.295 97.95,7.128c8.744,-9.283 14.015,-13.811 7.582,-39.456" style="fill:#f867dc;stroke:#000;stroke-width:13px;"/><path d="M529.288,602.142c-3.362,-5.409 -13.831,-6.27 -28.154,1.113c1.074,18.623 -5.766,27.45 -16.502,36.747c11.538,8.996 21.765,20.941 27.113,15.84c18.104,-10.28 25.873,-29.382 17.543,-53.7Z" style="fill:#f867dc;stroke:#000;stroke-width:14.74px;"/><path d="M523.009,646.859l125.625,-65.026l115.903,64.501c21.139,7.814 52.764,42.698 96.544,54.229c-21.404,11.572 -101.831,27.011 -171.63,10.51c-62.286,-14.725 -100.08,-70.439 -166.442,-64.214Z" style="fill:#f867dc;stroke:#000;stroke-width:14.74px;"/><path d="M532.628,634.976c8.339,-9.846 -1.274,-16.726 0,-37.075c105.715,-79.609 181.804,-74.365 222.587,-61.478c32.696,10.332 61.194,26.303 87.517,44.197c27.767,18.876 53.116,39.891 78.422,58.682c-71.728,4.84 -186.575,19.864 -257.635,-13.687c-86.197,-25.405 -107.465,-2.269 -130.891,9.361Z" style="fill:#f867dc;stroke:#000;stroke-width:14.74px;"/><path d="M533.648,613.051c62.075,-33.259 105.191,-44.952 130.137,-35.948" style="fill:#f867dc;stroke:#000;stroke-width:14.74px;"/></g><g><path d="M193.055,426.355c105.154,244.123 298.019,187.401 376.196,136.832c97.098,-62.808 122.346,-125.573 146.238,-232.507c16.009,-71.656 -4.817,-150.65 -137.103,-131.482c-56.226,10.512 -94.866,21.855 -150.139,37.918c-63.574,18.476 -145.647,39.382 -212.119,57.369c-58.011,20.214 -45.574,73.668 -23.073,131.87Z" style="fill:#7ce297;stroke:#000;stroke-width:13px;"/><g><path d="M286.865,337.346c42.81,3.973 71.922,47.34 69.437,65.851c0,0 -48.961,16.893 -77.012,10.361c-41.434,-9.649 -48.657,-37.291 -54.031,-41.449c0,0 32.982,-37.419 61.606,-34.763Z" style="fill:#fff;stroke:#000;stroke-width:13px;"/><ellipse cx="305.629" cy="380.397" rx="24.03" ry="23.677" style="stroke:#000;stroke-width:7.28px;"/></g><g><path d="M488.606,414.841c0,0 41.876,-28.773 61.532,-31.773c35.262,-5.382 56.405,8.281 58.503,20.561" style="fill:none;stroke:#000;stroke-width:18.63px;"/><path d="M702.693,312.623c-21.372,31.827 -59.844,66.484 -102.592,78.813" style="fill:none;stroke:#000;stroke-width:18.63px;"/><path d="M788.706,293.834c-44.528,56.189 -104.337,93.057 -180.065,109.795" style="fill:none;stroke:#000;stroke-width:18.63px;"/><path d="M466.599,337.959c26.694,29.368 59.901,22.095 86.168,11.08c25.164,-10.552 65.27,-15.612 81.32,-1.15" style="fill:none;stroke:#000;stroke-width:18.63px;"/><path d="M144.64,267.002c23.397,42.561 50.18,77.724 86.733,91.545" style="fill:none;stroke:#000;stroke-width:18.63px;"/><path d="M224.35,373.504c-46.448,-12.73 -94.691,-44.438 -145.689,-105.265" style="fill:none;stroke:#000;stroke-width:18.63px;"/><path d="M216.473,320.871c46.283,-29.649 70.399,-18.805 88.3,-8.096c36.815,22.022 62.891,41.369 79.581,35.957" style="fill:none;stroke:#000;stroke-width:18.63px;"/></g><g><path d="M380.946,516.991c-14.985,-22.767 19.757,-63.687 46.996,-68.795c26.219,-4.916 65.235,30.879 57.934,55.502c-35.05,-16.788 -70.029,-13.208 -104.93,13.293Z" style="fill:#bd4b6c;stroke:#000;stroke-width:13px;"/><path d="M399.687,463.812c9.071,5.317 14.463,16.55 31.073,12.218c1.23,-0.321 -1.305,-18.915 0,-19.073c1.53,-0.185 0.422,18.496 1.999,18.709c12.31,1.66 20.135,-11.763 31.849,-15.004c-2.873,-6.969 -6.572,-7.257 -33.848,-14.873c-21.163,7.899 -23.308,5.449 -31.073,18.023Z" style="fill:#fff;"/><path d="M380.946,516.991c-14.985,-22.767 19.757,-63.687 46.996,-68.795c26.219,-4.916 65.235,30.879 57.934,55.502c-35.05,-16.788 -70.029,-13.208 -104.93,13.293Z" style="fill:none;stroke:#000;stroke-width:13px;"/></g><path d="M398.731,420.28c3.104,-20.833 7.573,-26.345 12.361,-28.276c8.224,11.052 16.765,16.341 25.596,16.383" style="fill:none;stroke:#000;stroke-width:13px;"/></g></g></g></svg>